Coordinates
version=1
nRows=29
nColumns=24
inDegrees=yes

Units are S.I. units (second, meters, Newtons, ...)
Angles are in degrees.

endheader
time	pelvis_tilt	pelvis_list	pelvis_rotation	pelvis_tx	pelvis_ty	pelvis_tz	hip_flexion_r	hip_adduction_r	hip_rotation_r	knee_angle_r	ankle_angle_r	subtalar_angle_r	mtp_angle_r	hip_flexion_l	hip_adduction_l	hip_rotation_l	knee_angle_l	ankle_angle_l	subtalar_angle_l	mtp_angle_l	lumbar_extension	lumbar_bending	lumbar_rotation
      4.07500000	     -4.45650713	      9.14069590	      0.77395746	     -0.56973369	     -0.01876644	     -0.18999122	     29.77533338	     -9.81976858	     -1.51785515	    -68.35164619	    -10.84064178	     -1.84195733	     17.50174394	     10.61961592	     17.77100154	     -0.02085016	    -16.12743561	      6.88243160	     -0.49241675	    -12.26728531	      6.06589303	    -10.39579928	     -1.68576631
      4.08000000	     -4.37289388	      8.96045824	      0.86007846	     -0.56381901	     -0.01820815	     -0.19004157	     30.41921132	     -9.57910025	     -1.67508750	    -67.53284388	    -10.30692124	     -1.87507630	     17.58340674	      9.80743733	     17.58433765	      0.15986927	    -15.75627273	      7.22462016	     -0.22907874	    -12.33518364	      5.89009589	    -10.26055769	     -1.94896452
      4.08500000	     -4.29265366	      8.78348902	      0.97194623	     -0.55795536	     -0.01770090	     -0.19008431	     31.03140102	     -9.35174241	     -1.84346182	    -66.64004922	     -9.80079881	     -1.88484648	     17.62648020	      9.02145957	     17.39169359	      0.29373782	    -15.41754781	      7.57003371	      0.10968978	    -12.36288255	      5.70301252	    -10.13935597	     -2.24976506
      4.09000000	     -4.24312108	      8.60716856	      1.07715221	     -0.55206449	     -0.01731199	     -0.19011049	     31.65740385	     -9.13098850	     -2.01467201	    -65.69493387	     -9.34562065	     -1.88242201	     17.62682199	      8.27509100	     17.19499887	      0.41567917	    -15.08601164	      7.94311519	      0.43410300	    -12.33415440	      5.56006413	    -10.02145790	     -2.52409794
      4.09500000	     -4.15142707	      8.43191736	      1.21290197	     -0.54622344	     -0.01690574	     -0.19014201	     32.18594170	     -8.92582180	     -2.20296023	    -64.66594068	     -8.87596417	     -1.87002226	     17.55291861	      7.50951204	     16.99079543	      0.47570939	    -14.79743465	      8.29520099	      0.84997878	    -12.30343088	      5.34360909	     -9.90818994	     -2.89205964
      4.10000000	     -4.08391413	      8.25784873	      1.34028351	     -0.54036249	     -0.01660288	     -0.19015034	     32.71835598	     -8.72208700	     -2.38391654	    -63.58565741	     -8.43911641	     -1.85396168	     17.40602313	      6.77614803	     16.78648718	      0.54098837	    -14.51570228	      8.66887946	      1.23401562	    -12.26573002	      5.16401785	     -9.79663973	     -3.22447072
      4.10500000	     -4.02485568	      8.08187521	      1.47004199	     -0.53448473	     -0.01636855	     -0.19012914	     33.22533525	     -8.52289577	     -2.57019528	    -62.44337243	     -8.01526835	     -1.82726342	     17.21219691	      6.06441001	     16.57920804	      0.60914418	    -14.25478940	      9.03550163	      1.56626823	    -12.22941257	      4.99446204	     -9.69249946	     -3.56723879
      4.11000000	     -3.96611247	      7.90905026	      1.59861870	     -0.52863186	     -0.01619096	     -0.19009751	     33.70410241	     -8.33017386	     -2.74843054	    -61.24157279	     -7.59781418	     -1.79425695	     16.97101457	      5.36575458	     16.37554274	      0.69083831	    -14.00912496	      9.38426081	      1.86332537	    -12.20599065	      4.81802212	     -9.58381706	     -3.90909474
      4.11500000	     -3.92065159	      7.73476177	      1.71414118	     -0.52278867	     -0.01610302	     -0.19004454	     34.17544760	     -8.13783610	     -2.92148860	    -59.98762189	     -7.19307286	     -1.74870779	     16.71824816	      4.69271341	     16.17331951	      0.78448040	    -13.77438567	      9.73604514	      2.08538742	    -12.19209529	      4.65473749	     -9.47174386	     -4.23621616
      4.12000000	     -3.83586238	      7.57296314	      1.84252768	     -0.51693524	     -0.01598243	     -0.18991725	     34.55642973	     -7.95605084	     -3.08013601	    -58.66700819	     -6.78395264	     -1.66487188	     16.34946397	      3.98168661	     15.97386261	      0.90508321	    -13.55660752	     10.06789311	      2.33545124	    -12.23152775	      4.45075985	     -9.39103831	     -4.58632536
      4.12500000	     -3.83979926	      7.39745897	      1.94100001	     -0.51112798	     -0.01603404	     -0.18976361	     35.01881462	     -7.74410186	     -3.19897171	    -57.28044174	     -6.39445906	     -1.58248699	     16.13235573	      3.41081583	     15.77049601	      1.00959239	    -13.39345314	     10.37255144	      2.41980585	    -12.25042268	      4.33692713	     -9.28142544	     -4.85421008
      4.13000000	     -3.74900670	      7.23028560	      2.06122499	     -0.50530579	     -0.01603285	     -0.18964141	     35.33475694	     -7.57948981	     -3.37560776	    -55.84700972	     -5.98541552	     -1.44257045	     15.81898852	      2.71924568	     15.57430407	      1.13098549	    -13.20749872	     10.70758462	      2.53682767	    -12.32160617	      4.11880645	     -9.18735874	     -5.23113337
      4.13500000	     -3.70305149	      7.06228485	      2.15678009	     -0.49952615	     -0.01610891	     -0.18944072	     35.67281853	     -7.38365738	     -3.48415702	    -54.34846429	     -5.58287882	     -1.26158418	     15.53066291	      2.11072562	     15.37475017	      1.24835695	    -13.07031518	     11.01831312	      2.59957925	    -12.42758131	      3.94698784	     -9.09029545	     -5.53218207
      4.14000000	     -3.75177531	      6.90613204	      2.21160227	     -0.49380443	     -0.01633330	     -0.18915865	     36.10963885	     -7.16370043	     -3.50204968	    -52.80007238	     -5.26943791	     -1.07215522	     15.38117846	      1.63529784	     15.18787464	      1.32703901	    -12.95801043	     11.28423803	      2.59954942	    -12.47048122	      3.87166338	     -9.00349744	     -5.75152807
      4.14500000	     -3.64054811	      6.74378532	      2.32883851	     -0.48811758	     -0.01643275	     -0.18895002	     36.30083971	     -7.01006778	     -3.65741617	    -51.18462612	     -4.81224351	     -0.79404536	     15.17179706	      0.99202764	     14.98989332	      1.43442147	    -12.87801737	     11.61702288	      2.66314677	    -12.60639157	      3.60392168	     -8.91996625	     -6.11702185
      4.15000000	     -3.69329119	      6.59352976	      2.36933654	     -0.48246680	     -0.01671526	     -0.18861995	     36.67488958	     -6.79084869	     -3.63457858	    -49.52334382	     -4.51645159	     -0.51467461	     15.04416620	      0.56043301	     14.80532404	      1.47821980	    -12.82153905	     11.87578167	      2.66156953	    -12.67775112	      3.52043823	     -8.84120671	     -6.33073677
      4.15500000	     -3.56430476	      6.45250326	      2.47199718	     -0.47687268	     -0.01683892	     -0.18836185	     36.78064993	     -6.64639157	     -3.72062719	    -47.80433994	     -4.05743714	     -0.11689526	     14.85626578	     -0.05952731	     14.61734440	      1.50370607	    -12.80345231	     12.23392454	      2.82043353	    -12.93926930	      3.21368470	     -8.77906499	     -6.71166274
      4.16000000	     -3.63805347	      6.30920177	      2.52434446	     -0.47129235	     -0.01721143	     -0.18804062	     37.10414860	     -6.45310368	     -3.70123749	    -46.04296138	     -3.74527107	      0.22868087	     14.78404595	     -0.42273465	     14.43769161	      1.50244999	    -12.82152193	     12.52651969	      2.86094859	    -13.02347597	      3.14226261	     -8.69950055	     -6.88280546
      4.16500000	     -3.52996262	      6.18380292	      2.62193909	     -0.46577219	     -0.01740537	     -0.18776664	     37.16327875	     -6.32559326	     -3.74705865	    -44.22546168	     -3.31137330	      0.69511216	     14.72253567	     -0.96639170	     14.25134702	      1.39902940	    -12.88691854	     12.93234073	      3.18204331	    -13.28721761	      2.84763060	     -8.64889441	     -7.24862396
      4.17000000	     -3.49041968	      6.03196055	      2.62291527	     -0.46019836	     -0.01770048	     -0.18726761	     37.27156127	     -6.07450777	     -3.67311033	    -42.35809750	     -2.99206368	      0.99999724	     14.47076775	     -1.35696858	     14.00576124	      0.94726683	    -13.12759608	     13.78171052	      3.98530582	    -14.40139629	      2.65570004	     -8.56272852	     -7.38950509
      4.17500000	     -3.56108828	      5.93757960	      2.75001898	     -0.45472425	     -0.01812698	     -0.18709568	     37.46842889	     -6.01275082	     -3.70138895	    -40.48292739	     -2.59686230	      1.54200042	     14.58192224	     -1.67520136	     13.86920328	      0.92648539	    -13.23619775	     14.06565004	      4.14528313	    -14.48970752	      2.54853313	     -8.52866231	     -7.68286172
      4.18000000	     -3.53590035	      5.82445555	      2.82056442	     -0.44921568	     -0.01845022	     -0.18681582	     37.50620101	     -5.88491017	     -3.67425358	    -38.54339718	     -2.25016038	      2.02204108	     14.64931238	     -2.08624213	     13.68087021	      0.71841894	    -13.35888071	     14.42645388	      4.54801109	    -14.58280419	      2.35152845	     -8.46364822	     -7.91263932
      4.18500000	     -3.48959156	      5.71752182	      2.88462412	     -0.44375007	     -0.01874447	     -0.18649344	     37.48224135	     -5.74724853	     -3.58648533	    -36.57588007	     -1.96892568	      2.47343445	     14.68193415	     -2.48019581	     13.47052912	      0.33531309	    -13.55462029	     14.88962018	      5.24774424	    -14.74904011	      2.12026143	     -8.40729413	     -8.17131395
      4.19000000	     -3.52852228	      5.59471598	      2.87955344	     -0.43818848	     -0.01917707	     -0.18595888	     37.52031718	     -5.51437030	     -3.39467540	    -34.58112586	     -1.77914436	      2.67606843	     14.59461496	     -2.71815489	     13.20558650	     -0.37919002	    -13.90185880	     15.71283294	      6.41039504	    -15.49332767	      2.01437900	     -8.33937925	     -8.25678259
      4.19500000	     -3.59277660	      5.50128802	      2.96341377	     -0.43266109	     -0.01960790	     -0.18582405	     37.55652052	     -5.43920235	     -3.32457735	    -32.62415039	     -1.43377230	      3.28687618	     14.65632881	     -3.02252100	     13.04107011	     -0.49382661	    -14.04784031	     15.97212387	      6.74582069	    -15.55985726	      1.91511958	     -8.26099756	     -8.43007300
      4.20000000	     -3.47907998	      5.40862595	      3.00931873	     -0.42714753	     -0.01986743	     -0.18544142	     37.34934957	     -5.30226128	     -3.18635947	    -30.63726859	     -1.11919757	      3.66927222	     14.60230951	     -3.43986315	     12.79040139	     -1.16094732	    -14.34557390	     16.50403556	      7.81962815	    -15.75931647	      1.61204622	     -8.21456675	     -8.70540145
      4.20500000	     -3.48648750	      5.28874094	      3.03005675	     -0.42150618	     -0.02027095	     -0.18507760	     37.25230639	     -5.12804540	     -3.01070356	    -28.68237018	     -0.81872660	      4.06820672	     14.48002892	     -3.72947072	     12.51822793	     -1.77227559	    -14.65750835	     17.05395487	      8.84260788	    -16.02042892	      1.47711613	     -8.11721088	     -8.82974428
      4.21000000	     -3.50550523	      5.19755312	      3.03220586	     -0.41586191	     -0.02072435	     -0.18467522	     37.16946356	     -4.96401337	     -2.75770758	    -26.80471265	     -0.51769749	      4.44270687	     14.19195607	     -3.99036659	     12.26513678	     -2.43381257	    -15.00669809	     17.61019350	      9.92330673	    -16.37801682	      1.35179967	     -8.04960329	     -8.93873754
      4.21500000	     -3.54021061	      5.10743804	      3.02334444	     -0.41009016	     -0.02123393	     -0.18428637	     37.08961853	     -4.80537239	     -2.52658362	    -24.99642359	     -0.14442853	      4.84916065	     13.81284342	     -4.24521230	     12.01442321	     -3.06937730	    -15.35284982	     18.11946406	     10.92181212	    -16.72646818	      1.27039803	     -7.97250154	     -9.00783247
